# Blender v2.78 (sub 0) OBJ File: 'colored_cube.blend'
# www.blender.org
mtllib colored_cube.mtl
o Cube
v 1.000000 -1.000000 -1.000000
v 1.000000 -1.000000 1.000000
v -1.000000 -1.000000 1.000000
v -1.000000 -1.000000 -1.000000
v 1.000000 1.000000 -0.999999
v 0.999999 1.000000 1.000001
v -1.000000 1.000000 1.000000
v -1.000000 1.000000 -1.000000
vn 0.0000 -1.0000 0.0000
vn 0.0000 -0.0000 1.0000
vn 0.0000 0.0000 -1.0000
vn -1.0000 -0.0000 -0.0000
vn 1.0000 -0.0000 0.0000
vn 0.0000 1.0000 0.0000
usemtl MaterialGreen
s off
f 2//1 4//1 1//1
f 2//1 3//1 4//1
usemtl MaterialRed
f 6//2 3//2 2//2
f 6//2 7//2 3//2
usemtl MaterialBlue
f 1//3 8//3 5//3
f 1//3 4//3 8//3
usemtl MaterialYellow
f 3//4 8//4 4//4
f 3//4 7//4 8//4
usemtl MaterialBlack
f 5//5 2//5 1//5
f 5//5 6//5 2//5
usemtl MaterialCyan
f 8//6 6//6 5//6
f 8//6 7//6 6//6
